<svg xmlns="http://www.w3.org/2000/svg" width="1080" height="206" viewBox="0 0 1080 206">
<g>
<path d="M 60.77,11.13 L 63.02,11.13 L 67.77,11.14 L 70.19,11.14 L 75.29,11.16 L 83.33,11.20 L 148.15,11.50 L 151.69,15.36 L 152.50,16.24 L 153.59,17.58 L 154.06,18.21 L 154.59,19.33 L 154.80,19.90 L 154.90,21.19 L 154.73,23.73 L 154.55,25.27 L 153.70,27.78 L 151.59,30.87 L 148.96,33.50 L 122.89,34.00 L 121.27,34.03 L 118.33,34.09 L 116.90,34.12 L 114.32,34.17 L 113.08,34.20 L 110.85,34.25 L 109.77,34.27 L 107.85,34.33 L 106.93,34.35 L 105.30,34.41 L 104.52,34.44 L 103.15,34.50 L 101.84,34.57 L 99.89,34.74 L 99.01,34.83 L 97.76,35.06 L 97.21,35.18 L 96.44,35.49 L 94.91,36.86 L 94.68,37.15 L 94.30,37.87 L 94.12,38.30 L 93.83,39.72 L 93.77,40.14 L 93.65,41.21 L 93.59,41.78 L 93.50,43.21 L 93.45,43.97 L 93.37,45.81 L 93.33,46.80 L 93.26,49.13 L 93.23,50.36 L 93.18,53.25 L 93.16,54.77 L 93.12,58.29 L 93.10,60.13 L 93.07,64.33 L 93.06,66.52 L 93.04,71.47 L 93.03,74.05 L 93.02,79.83 L 93.01,82.82 L 93.01,89.49 L 93.00,92.94 L 93.00,100.55 L 93.00,113.13 L 93.00,187.03 L 89.72,190.61 L 88.72,191.70 L 86.33,193.27 L 85.09,193.95 L 82.44,194.68 L 81.11,194.93 L 78.48,194.75 L 77.84,194.64 L 76.62,194.25 L 76.02,194.03 L 74.90,193.39 L 74.20,192.94 L 73.05,192.20 L 72.52,191.80 L 71.68,190.62 L 71.49,190.26 L 71.15,189.35 L 70.98,188.85 L 70.70,187.58 L 70.57,186.89 L 70.34,185.17 L 70.23,184.24 L 70.04,181.99 L 69.95,180.79 L 69.80,177.91 L 69.73,176.38 L 69.62,172.78 L 69.56,170.89 L 69.47,166.48 L 69.43,164.17 L 69.36,158.88 L 69.32,156.11 L 69.26,149.83 L 69.25,148.19 L 69.22,144.72 L 69.21,142.95 L 69.18,139.20 L 69.16,137.29 L 69.14,133.25 L 69.12,131.19 L 69.09,126.85 L 69.08,124.65 L 69.05,120.00 L 69.00,112.66 L 68.50,37.82 L 66.14,35.91 L 65.60,35.47 L 64.22,34.87 L 63.80,34.74 L 62.69,34.53 L 62.08,34.44 L 60.48,34.29 L 59.60,34.23 L 57.34,34.14 L 56.11,34.10 L 53.04,34.05 L 51.39,34.03 L 47.35,34.01 L 46.28,34.01 L 43.91,34.00 L 40.04,34.00 L 38.24,34.00 L 34.84,33.98 L 33.18,33.97 L 30.06,33.92 L 28.53,33.90 L 25.74,33.83 L 24.38,33.79 L 21.94,33.71 L 20.77,33.66 L 18.74,33.55 L 17.77,33.49 L 16.17,33.37 L 15.43,33.30 L 14.31,33.16 L 13.22,32.93 L 12.19,32.57 L 10.51,31.47 L 9.73,30.86 L 8.57,29.27 L 8.05,28.41 L 7.39,26.33 L 7.00,22.67 L 7.00,21.30 L 7.51,18.89 L 7.84,17.75 L 9.00,15.82 L 9.66,14.92 L 11.44,13.50 L 14.80,11.97 L 14.96,11.92 L 15.50,11.84 L 15.81,11.79 L 16.66,11.72 L 17.12,11.68 L 18.27,11.61 L 18.88,11.57 L 20.35,11.51 L 21.12,11.48 L 22.89,11.42 L 23.82,11.39 L 25.92,11.35 L 27.00,11.32 L 29.42,11.28 L 30.66,11.26 L 33.40,11.23 L 34.81,11.21 L 37.88,11.19 L 39.45,11.17 L 42.85,11.15 L 44.59,11.15 L 48.32,11.13 L 50.22,11.13 L 54.29,11.12 L 56.36,11.12 Z" fill="rgba(37,65,104,1)"/>
<path d="M 206.33,65.75 L 208.33,65.86 L 212.27,66.34 L 214.22,66.63 L 218.04,67.45 L 219.93,67.90 L 223.62,69.06 L 225.44,69.68 L 228.98,71.15 L 230.73,71.92 L 234.09,73.70 L 235.76,74.63 L 238.94,76.70 L 240.51,77.77 L 243.49,80.13 L 244.96,81.34 L 247.73,83.97 L 249.08,85.32 L 251.62,88.21 L 252.86,89.69 L 255.14,92.83 L 256.25,94.43 L 258.27,97.81 L 259.25,99.53 L 260.99,103.14 L 261.82,104.97 L 263.26,108.80 L 265.07,114.77 L 265.50,116.45 L 266.09,119.81 L 266.23,120.73 L 266.43,122.82 L 266.53,123.93 L 266.68,126.58 L 266.75,127.99 L 266.84,131.40 L 266.88,133.22 L 266.94,137.60 L 266.95,138.77 L 266.97,141.32 L 266.98,142.64 L 266.99,145.51 L 266.99,146.99 L 267.00,150.20 L 267.00,155.44 L 267.00,157.70 L 267.00,161.82 L 267.00,163.81 L 266.99,167.40 L 266.99,169.13 L 266.96,172.24 L 266.95,173.73 L 266.91,176.40 L 266.89,177.68 L 266.83,179.93 L 266.79,181.01 L 266.70,182.91 L 266.64,183.81 L 266.51,185.37 L 266.44,186.12 L 266.27,187.39 L 266.08,188.60 L 265.55,190.33 L 265.26,191.10 L 264.49,192.18 L 264.06,192.67 L 262.99,193.41 L 260.99,194.51 L 260.74,194.64 L 259.58,194.87 L 258.89,194.99 L 256.96,195.19 L 255.91,195.29 L 253.31,195.46 L 251.94,195.54 L 248.78,195.68 L 247.14,195.74 L 243.54,195.84 L 241.69,195.89 L 237.74,195.96 L 233.73,196.02 L 225.14,196.05 L 220.82,196.05 L 212.27,195.94 L 210.18,195.90 L 206.14,195.81 L 204.16,195.76 L 200.43,195.63 L 198.61,195.57 L 195.30,195.41 L 193.70,195.32 L 190.91,195.13 L 189.58,195.03 L 187.42,194.81 L 186.43,194.70 L 185.00,194.44 L 182.30,193.86 L 177.10,192.10 L 174.54,191.13 L 169.66,188.64 L 167.27,187.31 L 162.79,184.15 L 160.60,182.49 L 156.57,178.72 L 154.61,176.76 L 151.08,172.44 L 149.39,170.21 L 146.43,165.39 L 145.03,162.93 L 142.69,157.68 L 139.97,149.39 L 139.67,148.20 L 139.16,145.51 L 138.93,144.12 L 138.56,141.13 L 138.23,138.09 L 138.00,131.60 L 137.96,128.37 L 138.31,122.24 L 138.44,120.77 L 138.80,118.06 L 139.51,114.46 L 140.34,111.19 L 142.66,105.02 L 143.93,101.99 L 147.09,96.35 L 148.76,93.60 L 152.67,88.55 L 154.71,86.11 L 159.30,81.73 L 161.67,79.63 L 166.86,75.99 L 169.52,74.26 L 175.24,71.41 L 178.16,70.09 L 184.34,68.11 L 194.03,66.17 L 196.12,65.91 L 200.24,65.68 L 202.29,65.61 M 201.33,87.50 L 199.30,87.52 L 198.33,87.53 L 196.65,87.58 L 195.04,87.65 L 192.59,87.92 L 191.44,88.08 L 189.48,88.61 L 186.50,89.80 L 184.51,90.71 L 181.11,92.57 L 179.49,93.53 L 176.66,95.59 L 175.30,96.67 L 172.84,99.11 L 169.31,103.37 L 167.71,105.54 L 165.26,109.92 L 164.16,112.13 L 162.64,116.81 L 162.31,118.02 L 161.83,120.53 L 161.61,121.81 L 161.33,124.50 L 161.21,125.88 L 161.12,128.79 L 161.20,133.43 L 161.25,134.53 L 161.36,136.46 L 161.41,137.38 L 161.55,138.99 L 161.69,140.54 L 162.13,143.04 L 162.39,144.25 L 163.14,146.52 L 164.79,150.36 L 165.94,152.83 L 168.81,157.25 L 170.33,159.38 L 173.86,163.08 L 175.69,164.83 L 179.76,167.77 L 181.86,169.13 L 186.37,171.26 L 188.68,172.21 L 193.53,173.48 L 196.00,174.01 L 201.09,174.38 L 203.66,174.45 L 208.89,173.89 L 211.51,173.49 L 216.77,171.94 L 218.20,171.45 L 220.91,170.23 L 222.24,169.57 L 224.76,168.04 L 225.99,167.23 L 228.29,165.42 L 229.42,164.48 L 231.51,162.40 L 232.53,161.34 L 234.39,159.04 L 235.29,157.86 L 236.92,155.36 L 237.70,154.09 L 239.08,151.42 L 239.73,150.06 L 240.86,147.24 L 241.38,145.81 L 242.24,142.87 L 242.63,141.39 L 243.21,138.35 L 243.46,136.83 L 243.75,133.73 L 243.86,132.17 L 243.86,129.03 L 243.82,127.46 L 243.51,124.30 L 243.31,122.73 L 242.68,119.59 L 242.33,118.02 L 241.37,114.93 L 239.56,110.35 L 238.69,108.45 L 236.16,104.61 L 234.79,102.72 L 231.48,99.13 L 229.76,97.39 L 225.97,94.35 L 220.07,90.72 L 219.30,90.34 L 217.97,89.71 L 217.33,89.41 L 216.17,88.94 L 215.04,88.49 L 212.85,87.97 L 212.27,87.87 L 210.98,87.72 L 210.31,87.65 L 208.75,87.58 L 207.92,87.54 L 205.98,87.51 L 202.50,87.50 Z" fill="rgba(47,80,119,1)"/>
<path d="M 310.87,11.36 L 312.91,11.85 L 313.93,12.16 L 316.25,13.40 L 316.80,13.74 L 317.82,14.47 L 319.06,15.56 L 321.50,18.16 L 322.50,160.50 L 324.75,164.72 L 325.45,166.02 L 326.76,167.89 L 327.44,168.73 L 328.97,169.81 L 329.79,170.27 L 331.87,170.75 L 332.44,170.84 L 333.74,170.94 L 335.98,171.00 L 337.53,171.00 L 340.27,171.38 L 341.57,171.63 L 343.80,172.51 L 344.84,173.01 L 346.54,174.38 L 348.48,176.97 L 348.86,177.70 L 349.38,179.20 L 349.60,179.95 L 349.82,181.47 L 349.89,182.22 L 349.82,183.72 L 349.74,184.46 L 349.39,185.89 L 349.18,186.59 L 348.55,187.92 L 348.21,188.57 L 347.33,189.76 L 346.86,190.33 L 345.73,191.34 L 343.78,192.61 L 343.25,192.89 L 341.95,193.35 L 341.27,193.57 L 339.70,193.93 L 338.09,194.26 L 334.45,194.58 L 332.62,194.68 L 329.05,194.51 L 328.19,194.43 L 326.60,194.18 L 325.84,194.04 L 324.50,193.66 L 322.85,193.11 L 320.09,191.99 L 318.79,191.41 L 316.51,190.09 L 315.41,189.39 L 313.33,187.69 L 310.11,184.51 L 308.67,182.94 L 306.11,179.32 L 304.90,177.44 L 302.85,173.31 L 301.90,171.21 L 300.45,166.77 L 299.03,159.95 L 298.99,159.69 L 298.93,158.85 L 298.90,158.37 L 298.83,157.11 L 298.80,156.43 L 298.74,154.78 L 298.71,153.91 L 298.65,151.90 L 298.62,150.84 L 298.56,148.49 L 298.54,147.27 L 298.48,144.59 L 298.46,143.21 L 298.41,140.24 L 298.38,138.72 L 298.34,135.48 L 298.29,132.18 L 298.21,124.88 L 298.18,121.13 L 298.12,113.07 L 298.09,108.96 L 298.06,100.34 L 298.03,87.00 L 298.03,84.70 L 298.03,80.31 L 298.03,78.15 L 298.03,74.06 L 298.02,72.04 L 298.02,68.22 L 298.02,66.35 L 298.02,62.79 L 298.03,59.30 L 298.04,53.08 L 298.05,50.09 L 298.09,44.80 L 298.11,42.27 L 298.17,37.84 L 298.21,35.72 L 298.32,32.06 L 298.37,30.31 L 298.52,27.34 L 298.60,25.93 L 298.81,23.57 L 298.92,22.45 L 299.18,20.61 L 299.33,19.75 L 299.66,18.36 L 299.84,17.71 L 300.25,16.68 L 300.47,16.20 L 300.97,15.45 L 301.50,14.76 L 302.84,13.87 L 305.35,12.62 L 306.16,12.23 L 307.45,11.70 L 308.07,11.48 L 309.17,11.30 L 309.72,11.24 Z" fill="rgba(56,92,138,1)"/>
<path d="M 433.77,66.41 L 436.79,66.86 L 442.51,68.38 L 445.31,69.23 L 450.56,71.52 L 453.12,72.75 L 457.85,75.76 L 460.15,77.35 L 464.31,81.05 L 466.32,82.97 L 469.87,87.30 L 471.56,89.54 L 474.45,94.46 L 475.81,96.98 L 478.00,102.45 L 480.43,111.21 L 480.88,113.41 L 481.49,118.09 L 481.74,120.43 L 481.94,124.87 L 481.97,125.94 L 481.94,127.90 L 481.91,128.85 L 481.78,130.53 L 481.70,131.32 L 481.46,132.62 L 480.97,134.06 L 480.65,134.66 L 479.97,135.66 L 479.59,136.12 L 478.52,136.87 L 477.90,137.21 L 476.05,137.74 L 475.52,137.87 L 474.25,138.07 L 473.58,138.17 L 471.98,138.34 L 471.14,138.42 L 469.17,138.55 L 468.13,138.61 L 465.73,138.71 L 464.48,138.76 L 461.61,138.83 L 460.12,138.86 L 456.73,138.91 L 454.97,138.93 L 451.02,138.96 L 448.97,138.97 L 444.40,138.99 L 442.03,138.99 L 436.80,139.00 L 428.16,139.00 L 382.21,139.00 L 383.14,143.14 L 383.47,144.61 L 384.43,147.50 L 384.95,148.93 L 386.27,151.71 L 386.97,153.09 L 388.62,155.73 L 389.49,157.04 L 391.45,159.51 L 392.47,160.73 L 394.71,163.00 L 395.87,164.11 L 398.37,166.15 L 399.64,167.14 L 402.37,168.91 L 406.68,171.23 L 408.15,171.92 L 410.56,172.89 L 411.73,173.33 L 414.06,173.90 L 415.28,174.16 L 418.23,174.47 L 419.03,174.54 L 420.87,174.65 L 424.06,174.81 L 425.58,174.87 L 428.41,174.88 L 429.79,174.87 L 432.39,174.72 L 434.93,174.53 L 439.54,173.63 L 441.78,173.08 L 446.07,171.39 L 452.54,167.87 L 453.86,167.03 L 456.86,165.57 L 457.58,165.24 L 458.89,164.75 L 460.48,164.31 L 461.44,164.15 L 463.33,164.24 L 464.27,164.34 L 466.05,164.87 L 466.92,165.19 L 468.51,166.11 L 469.28,166.60 L 470.61,167.81 L 471.23,168.45 L 472.22,169.88 L 472.66,170.61 L 473.23,172.18 L 473.45,172.98 L 473.52,174.61 L 472.98,177.05 L 472.59,177.98 L 471.20,179.83 L 470.39,180.76 L 468.11,182.63 L 466.86,183.57 L 463.64,185.49 L 457.70,188.50 L 454.44,190.00 L 447.75,192.30 L 444.39,193.33 L 437.55,194.67 L 434.12,195.21 L 427.19,195.57 L 423.72,195.63 L 416.76,195.01 L 414.40,194.71 L 409.77,193.75 L 407.47,193.22 L 403.00,191.79 L 400.79,191.02 L 396.53,189.15 L 394.43,188.16 L 390.42,185.88 L 388.45,184.69 L 384.74,182.02 L 382.93,180.64 L 379.55,177.60 L 377.91,176.05 L 374.92,172.68 L 370.92,167.28 L 369.98,165.83 L 368.28,162.84 L 367.46,161.32 L 366.02,158.20 L 365.33,156.62 L 364.14,153.40 L 363.57,151.77 L 362.63,148.46 L 361.75,145.13 L 360.75,138.30 L 360.37,134.86 L 360.37,127.95 L 360.49,124.49 L 361.47,117.64 L 362.09,114.24 L 364.06,107.62 L 364.61,105.99 L 365.90,102.79 L 366.58,101.21 L 368.12,98.12 L 368.91,96.60 L 370.70,93.64 L 373.64,89.38 L 375.34,87.13 L 379.14,83.07 L 381.10,81.12 L 385.38,77.68 L 387.58,76.04 L 392.28,73.24 L 394.69,71.92 L 399.76,69.78 L 402.34,68.80 L 407.74,67.34 L 410.47,66.70 L 416.12,65.94 L 418.97,65.65 L 424.83,65.62 M 560.53,64.99 L 564.12,65.02 L 570.82,65.18 L 572.43,65.23 L 575.43,65.34 L 576.88,65.40 L 579.52,65.54 L 580.79,65.62 L 582.98,65.79 L 585.67,66.09 L 587.36,66.32 L 590.63,66.96 L 592.24,67.31 L 595.35,68.17 L 596.88,68.63 L 599.83,69.70 L 601.28,70.27 L 604.06,71.55 L 605.42,72.22 L 608.03,73.72 L 609.31,74.49 L 611.73,76.18 L 612.93,77.06 L 615.17,78.95 L 616.27,79.92 L 618.33,82.01 L 619.34,83.07 L 621.21,85.35 L 622.12,86.51 L 623.80,88.97 L 624.62,90.22 L 626.10,92.85 L 626.81,94.19 L 628.09,97.00 L 628.70,98.43 L 629.77,101.41 L 630.28,102.92 L 631.13,106.07 L 631.54,107.66 L 632.18,110.97 L 632.89,116.10 L 632.97,116.86 L 633.12,118.84 L 633.18,119.90 L 633.31,122.41 L 633.37,123.72 L 633.47,126.67 L 633.52,128.19 L 633.61,131.50 L 633.69,134.89 L 633.79,142.35 L 633.84,146.14 L 633.86,153.90 L 633.86,157.75 L 633.81,165.10 L 633.79,166.88 L 633.73,170.25 L 633.71,171.89 L 633.63,174.92 L 633.59,176.38 L 633.50,178.97 L 633.45,180.21 L 633.34,182.29 L 633.28,183.26 L 633.15,184.73 L 632.93,186.18 L 632.79,186.70 L 632.30,187.83 L 632.03,188.41 L 631.32,189.57 L 628.78,192.53 L 628.08,193.12 L 626.94,193.92 L 626.38,194.27 L 625.28,194.66 L 624.70,194.82 L 623.32,194.90 L 620.60,194.74 L 619.62,194.64 L 618.04,194.37 L 617.30,194.21 L 616.08,193.74 L 615.50,193.48 L 614.46,192.74 L 612.91,191.23 L 610.21,188.20 L 609.77,151.85 L 609.74,149.90 L 609.70,146.30 L 609.67,144.54 L 609.62,141.30 L 609.60,139.72 L 609.55,136.83 L 609.53,135.42 L 609.48,132.84 L 609.45,131.59 L 609.39,129.31 L 609.36,128.21 L 609.30,126.20 L 609.24,124.26 L 609.09,121.09 L 609.02,119.62 L 608.83,117.25 L 608.73,116.15 L 608.50,114.39 L 608.38,113.57 L 608.09,112.23 L 607.59,110.50 L 606.89,108.50 L 605.12,104.85 L 604.18,103.09 L 601.94,99.94 L 600.76,98.43 L 598.07,95.79 L 596.67,94.53 L 593.55,92.42 L 591.94,91.43 L 588.42,89.86 L 586.62,89.14 L 582.73,88.12 L 580.74,87.69 L 576.50,87.25 L 569.77,87.24 L 567.93,87.36 L 564.39,87.90 L 562.64,88.22 L 559.33,89.13 L 557.70,89.64 L 554.65,90.91 L 553.16,91.59 L 550.41,93.19 L 549.08,94.03 L 546.67,95.94 L 545.52,96.93 L 543.49,99.12 L 542.53,100.25 L 540.93,102.70 L 539.04,106.63 L 538.56,107.91 L 537.91,110.53 L 537.77,111.28 L 537.55,113.14 L 537.45,114.15 L 537.30,116.73 L 537.27,117.44 L 537.21,119.02 L 537.18,119.85 L 537.14,121.72 L 537.12,122.68 L 537.09,124.86 L 537.07,125.98 L 537.05,128.50 L 537.04,129.80 L 537.02,132.69 L 537.02,134.18 L 537.01,137.48 L 537.01,139.19 L 537.00,142.93 L 537.00,149.09 L 537.00,149.44 L 536.98,141.42 L 536.96,136.61 L 536.94,134.47 L 536.89,130.36 L 536.86,128.58 L 536.79,125.20 L 536.75,123.77 L 536.66,121.11 L 536.61,120.05 L 536.50,118.12 L 536.43,117.43 L 536.30,116.23 L 536.23,115.91 L 536.08,115.45 L 536.00,115.50 L 535.80,116.36 L 535.67,117.63 L 535.62,118.57 L 535.51,120.63 L 535.46,121.92 L 535.36,124.66 L 535.32,126.24 L 535.24,129.52 L 535.20,131.32 L 535.13,135.01 L 535.11,136.97 L 535.02,145.08 L 534.99,149.26 L 534.97,157.63 L 534.99,161.56 L 535.01,165.44 L 535.02,167.25 L 535.06,170.77 L 535.09,172.36 L 535.15,175.41 L 535.19,176.72 L 535.27,179.17 L 535.32,180.13 L 535.42,181.85 L 535.47,182.40 L 535.60,183.26 L 535.67,183.33 L 536.05,183.68 L 536.24,183.80 L 536.39,183.90 L 536.22,185.38 L 536.12,186.08 L 535.90,187.28 L 535.78,187.85 L 535.50,188.81 L 535.21,189.72 L 534.44,190.98 L 534.02,191.54 L 532.97,192.37 L 531.03,193.48 L 530.03,194.00 L 527.88,194.62 L 526.80,194.86 L 524.59,194.91 L 523.48,194.87 L 521.31,194.37 L 520.24,194.05 L 518.23,193.00 L 517.32,192.45 L 515.63,190.83 L 515.24,190.42 L 514.61,189.59 L 513.98,188.43 L 513.94,188.34 L 513.87,187.89 L 513.83,187.63 L 513.76,186.86 L 513.73,186.44 L 513.67,185.36 L 513.63,184.79 L 513.57,183.40 L 513.54,182.68 L 513.49,181.00 L 513.46,180.13 L 513.41,178.18 L 513.38,177.17 L 513.33,174.94 L 513.31,173.79 L 513.27,171.31 L 513.22,168.76 L 513.15,162.92 L 513.12,159.88 L 513.07,153.14 L 513.05,149.66 L 513.02,142.08 L 513.00,129.89 L 513.00,126.00 L 513.00,118.96 L 513.00,115.56 L 513.01,109.43 L 513.01,106.47 L 513.03,101.19 L 513.04,98.65 L 513.08,94.14 L 513.10,91.98 L 513.17,88.19 L 513.21,86.38 L 513.30,83.23 L 513.36,81.73 L 513.50,79.17 L 513.57,77.95 L 513.76,75.90 L 513.86,74.93 L 514.10,73.32 L 514.23,72.57 L 514.53,71.34 L 514.69,70.77 L 515.06,69.86 L 515.25,69.44 L 515.69,68.78 L 516.16,68.16 L 517.33,67.40 L 519.53,66.42 L 519.80,66.31 L 520.84,66.11 L 521.44,66.01 L 523.09,65.83 L 523.99,65.74 L 526.17,65.59 L 527.32,65.51 L 529.95,65.39 L 531.31,65.32 L 534.31,65.22 L 535.84,65.17 L 539.12,65.09 L 542.46,65.02 L 549.64,64.96 L 553.27,64.94 M 537.00,156.25 L 537.00,158.48 L 536.98,162.53 L 536.98,164.49 L 536.95,168.01 L 536.94,169.70 L 536.94,169.80 L 536.94,168.73 L 536.97,164.93 L 536.97,162.86 L 536.99,158.63 L 536.99,156.38 L 537.00,151.93 M 420.96,85.98 L 417.39,86.32 L 415.61,86.54 L 412.15,87.22 L 410.45,87.60 L 407.23,88.61 L 405.66,89.15 L 402.80,90.47 L 399.06,92.78 L 397.16,94.22 L 393.62,97.77 L 391.92,99.63 L 388.97,103.72 L 387.59,105.81 L 385.47,110.09 L 385.00,111.15 L 384.26,113.25 L 383.47,116.31 L 382.78,120.00 L 460.26,120.00 L 459.71,115.88 L 459.52,114.48 L 458.76,111.64 L 458.33,110.21 L 457.11,107.38 L 456.46,105.97 L 454.85,103.22 L 454.01,101.87 L 452.07,99.29 L 451.07,98.03 L 448.87,95.70 L 447.75,94.57 L 445.34,92.57 L 444.12,91.61 L 441.57,90.01 L 437.66,88.15 L 436.23,87.61 L 433.07,86.83 L 431.45,86.50 L 428.03,86.11 L 426.30,85.96 L 422.74,85.95 Z" fill="rgba(71,117,157,1)"/>
<path d="M 734.75,65.70 L 736.62,65.79 L 740.33,66.19 L 742.18,66.42 L 745.83,67.11 L 747.65,67.48 L 751.20,68.44 L 752.96,68.95 L 756.37,70.17 L 758.06,70.82 L 761.30,72.30 L 765.91,74.80 L 768.35,76.27 L 772.80,79.59 L 774.96,81.30 L 778.84,85.09 L 780.71,87.03 L 784.01,91.26 L 785.58,93.42 L 788.28,98.06 L 789.55,100.43 L 791.63,105.46 L 792.59,108.02 L 794.05,113.41 L 794.69,116.14 L 795.50,121.87 L 795.98,130.80 L 795.98,133.75 L 795.56,139.22 L 795.28,141.91 L 794.28,147.01 L 793.71,149.54 L 792.08,154.48 L 788.87,161.94 L 788.14,163.43 L 786.50,166.29 L 785.66,167.69 L 783.81,170.36 L 782.87,171.68 L 780.82,174.17 L 779.78,175.39 L 777.54,177.69 L 775.27,179.94 L 770.19,183.85 L 767.58,185.70 L 761.89,188.79 L 758.98,190.22 L 752.77,192.43 L 749.60,193.43 L 742.95,194.73 L 739.58,195.26 L 732.57,195.61 L 729.03,195.66 L 721.75,195.00 L 718.40,194.59 L 712.01,193.06 L 708.88,192.19 L 702.96,189.79 L 700.08,188.49 L 694.71,185.28 L 692.09,183.57 L 687.33,179.60 L 685.03,177.53 L 680.93,172.85 L 678.97,170.43 L 675.59,165.11 L 674.01,162.38 L 671.43,156.47 L 668.51,147.00 L 668.25,145.82 L 667.82,143.20 L 667.62,141.86 L 667.34,138.97 L 667.09,136.04 L 667.04,129.80 L 667.08,126.67 L 667.58,120.62 L 667.75,119.16 L 668.17,116.40 L 668.97,112.61 L 669.80,109.37 L 672.10,103.29 L 673.35,100.33 L 676.45,94.84 L 678.09,92.17 L 681.94,87.31 L 683.95,84.96 L 688.49,80.77 L 690.84,78.77 L 696.01,75.31 L 698.67,73.67 L 704.43,70.99 L 707.37,69.74 L 713.65,67.87 L 723.61,66.04 L 725.44,65.83 L 729.16,65.64 L 731.02,65.59 M 536.23,115.91 L 536.30,116.23 L 536.43,117.43 L 536.50,118.12 L 536.61,120.05 L 536.66,121.11 L 536.75,123.77 L 536.79,125.20 L 536.86,128.58 L 536.89,130.36 L 536.94,134.47 L 536.96,136.61 L 536.98,141.42 L 537.00,149.44 L 537.00,151.82 L 536.99,156.38 L 536.99,158.63 L 536.97,162.86 L 536.97,164.93 L 536.94,168.73 L 536.93,170.57 L 536.90,173.85 L 536.89,175.41 L 536.85,178.08 L 536.83,179.32 L 536.80,181.27 L 536.78,182.15 L 536.73,183.29 L 536.67,184.00 L 536.57,184.00 L 536.24,183.80 L 536.05,183.68 L 535.67,183.33 L 535.60,183.26 L 535.47,182.40 L 535.42,181.85 L 535.32,180.13 L 535.27,179.17 L 535.19,176.72 L 535.15,175.41 L 535.09,172.36 L 535.06,170.77 L 535.02,167.25 L 535.01,165.44 L 534.99,161.56 L 534.97,157.63 L 534.99,149.26 L 535.02,145.08 L 535.11,136.97 L 535.13,135.01 L 535.20,131.32 L 535.24,129.52 L 535.32,126.24 L 535.36,124.66 L 535.46,121.92 L 535.51,120.63 L 535.62,118.57 L 535.67,117.63 L 535.80,116.36 L 536.00,115.50 L 536.08,115.45 M 730.12,87.51 L 727.78,87.53 L 726.67,87.54 L 724.81,87.59 L 723.92,87.62 L 722.43,87.72 L 721.71,87.77 L 720.48,87.94 L 719.30,88.12 L 717.26,88.77 L 713.88,90.27 L 711.95,91.22 L 708.42,93.42 L 706.71,94.58 L 703.63,97.19 L 702.15,98.54 L 699.54,101.54 L 698.29,103.08 L 696.15,106.44 L 695.14,108.16 L 693.48,111.86 L 692.71,113.75 L 691.56,117.78 L 691.04,119.83 L 690.40,124.15 L 690.01,130.96 L 690.01,132.85 L 690.30,136.48 L 690.49,138.27 L 691.12,141.71 L 691.49,143.41 L 692.46,146.64 L 692.99,148.23 L 694.28,151.24 L 694.96,152.72 L 696.55,155.49 L 697.38,156.84 L 699.24,159.36 L 700.21,160.59 L 702.34,162.84 L 703.43,163.94 L 705.80,165.91 L 707.02,166.86 L 709.61,168.54 L 710.94,169.33 L 713.73,170.70 L 715.16,171.34 L 718.14,172.38 L 719.66,172.86 L 722.81,173.56 L 724.40,173.87 L 727.71,174.22 L 729.37,174.35 L 732.81,174.32 L 734.54,174.27 L 738.08,173.86 L 739.86,173.61 L 743.50,172.81 L 745.06,172.42 L 748.26,171.18 L 749.86,170.49 L 753.01,168.73 L 754.56,167.79 L 757.49,165.61 L 761.43,161.97 L 762.67,160.65 L 764.84,157.82 L 765.87,156.37 L 767.64,153.33 L 768.48,151.79 L 769.86,148.57 L 770.50,146.95 L 771.49,143.61 L 771.94,141.93 L 772.55,138.50 L 772.81,136.78 L 773.05,133.31 L 773.12,131.58 L 773.00,128.10 L 772.89,126.37 L 772.41,122.93 L 772.12,121.22 L 771.29,117.86 L 770.82,116.19 L 769.65,112.95 L 769.01,111.35 L 767.50,108.27 L 766.70,106.76 L 764.85,103.88 L 763.88,102.47 L 761.71,99.84 L 760.59,98.56 L 758.10,96.21 L 756.82,95.08 L 754.02,93.06 L 749.48,90.44 L 748.08,89.75 L 745.89,88.83 L 744.82,88.42 L 742.60,87.95 L 742.01,87.85 L 740.65,87.72 L 739.94,87.66 L 738.26,87.59 L 737.37,87.56 L 735.27,87.53 L 731.50,87.51 Z" fill="rgba(86,140,180,1)"/>
<path d="M 998.00,194.91 L 995.31,194.57 L 990.16,193.46 L 987.62,192.84 L 982.79,191.18 L 980.42,190.29 L 975.94,188.11 L 973.75,186.96 L 969.63,184.26 L 967.62,182.85 L 963.89,179.65 L 962.07,177.99 L 958.75,174.31 L 957.14,172.41 L 954.24,168.25 L 950.40,161.50 L 949.61,159.91 L 948.23,156.66 L 947.58,155.03 L 946.46,151.71 L 945.41,148.38 L 944.07,141.58 L 943.52,138.16 L 943.19,131.30 L 943.15,127.88 L 943.81,121.10 L 944.26,117.73 L 945.90,111.16 L 946.83,107.91 L 949.41,101.69 L 950.12,100.17 L 951.70,97.20 L 952.53,95.74 L 954.34,92.91 L 955.28,91.51 L 957.33,88.83 L 960.65,85.01 L 961.96,83.62 L 964.67,81.09 L 966.04,79.87 L 968.89,77.64 L 970.33,76.57 L 973.34,74.65 L 974.86,73.73 L 978.03,72.10 L 979.63,71.33 L 982.98,69.99 L 984.68,69.35 L 988.23,68.30 L 990.03,67.80 L 993.78,67.02 L 999.66,66.14 L 1001.83,65.90 L 1006.08,65.68 L 1008.19,65.61 L 1012.33,65.74 L 1014.39,65.85 L 1018.41,66.33 L 1020.41,66.61 L 1024.31,67.43 L 1026.25,67.88 L 1030.02,69.05 L 1031.90,69.68 L 1035.54,71.19 L 1037.34,71.98 L 1040.85,73.84 L 1045.94,77.00 L 1048.18,78.53 L 1052.23,81.98 L 1054.19,83.76 L 1057.67,87.66 L 1059.35,89.66 L 1062.27,93.95 L 1063.67,96.13 L 1066.03,100.74 L 1067.14,103.07 L 1068.95,107.93 L 1069.78,110.38 L 1071.02,115.42 L 1071.57,117.96 L 1072.25,123.12 L 1072.52,125.70 L 1072.63,130.91 L 1072.62,133.52 L 1072.18,138.71 L 1071.89,141.30 L 1070.89,146.42 L 1070.32,148.96 L 1068.75,153.92 L 1067.90,156.38 L 1065.78,161.13 L 1064.65,163.47 L 1061.97,167.94 L 1060.56,170.14 L 1057.31,174.26 L 1055.62,176.27 L 1051.82,179.98 L 1045.49,185.00 L 1043.72,186.22 L 1039.50,188.46 L 1037.31,189.53 L 1032.48,191.39 L 1030.03,192.26 L 1024.95,193.62 L 1017.40,194.96 L 1016.17,195.10 L 1014.11,195.33 L 1013.14,195.44 L 1011.50,195.60 L 1009.94,195.74 L 1007.45,195.81 L 1006.22,195.80 L 1003.53,195.58 L 1002.79,195.50 L 1001.07,195.30 L 1000.16,195.19 M 1020.00,172.77 L 1022.33,172.08 L 1026.62,170.22 L 1028.70,169.22 L 1032.45,166.79 L 1034.26,165.50 L 1037.47,162.51 L 1039.00,160.95 L 1041.64,157.44 L 1042.88,155.62 L 1044.93,151.60 L 1045.88,149.54 L 1047.32,145.06 L 1047.96,142.76 L 1048.77,137.84 L 1049.27,130.00 L 1049.27,127.75 L 1048.88,123.44 L 1048.63,121.33 L 1047.75,117.30 L 1047.25,115.33 L 1045.88,111.61 L 1045.14,109.79 L 1043.29,106.39 L 1042.31,104.72 L 1039.99,101.66 L 1038.78,100.17 L 1036.01,97.45 L 1034.56,96.14 L 1031.34,93.79 L 1026.02,90.70 L 1025.25,90.32 L 1023.93,89.69 L 1023.29,89.40 L 1022.15,88.92 L 1021.03,88.48 L 1018.82,87.96 L 1018.23,87.86 L 1016.90,87.71 L 1016.21,87.65 L 1014.59,87.57 L 1013.73,87.54 L 1011.68,87.51 L 1008.02,87.50 L 1006.72,87.50 L 1004.50,87.52 L 1003.45,87.53 L 1001.66,87.58 L 1000.81,87.61 L 999.35,87.71 L 998.65,87.77 L 997.43,87.93 L 996.24,88.12 L 994.18,88.75 L 990.75,90.20 L 988.58,91.21 L 984.62,93.76 L 982.70,95.12 L 979.25,98.28 L 977.60,99.93 L 974.73,103.63 L 973.36,105.53 L 971.09,109.67 L 970.04,111.78 L 968.43,116.27 L 967.71,118.55 L 966.79,123.30 L 966.42,125.71 L 966.24,130.64 L 966.86,138.15 L 967.23,140.46 L 968.53,145.09 L 969.27,147.38 L 971.20,151.78 L 972.23,153.92 L 974.65,157.80 L 978.70,162.75 L 979.94,164.00 L 982.76,166.21 L 984.22,167.27 L 987.39,169.11 L 989.02,169.97 L 992.47,171.40 L 994.22,172.06 L 997.86,173.06 L 999.69,173.50 L 1003.43,174.06 L 1005.31,174.28 L 1009.07,174.36 L 1010.94,174.35 L 1014.63,173.95 L 1016.46,173.68 M 865.89,194.30 L 865.53,194.24 L 864.67,193.93 L 864.23,193.74 L 863.29,193.22 L 860.73,191.20 L 860.65,191.10 L 860.38,190.72 L 860.24,190.50 L 859.86,189.88 L 859.45,189.20 L 858.33,187.15 L 857.72,186.03 L 856.23,183.18 L 855.45,181.67 L 853.66,178.13 L 852.73,176.29 L 850.68,172.17 L 849.63,170.05 L 847.39,165.47 L 846.25,163.13 L 843.87,158.19 L 840.21,150.50 L 837.73,145.28 L 832.65,134.56 L 831.39,131.91 L 828.93,126.72 L 827.71,124.16 L 825.38,119.26 L 824.24,116.85 L 822.11,112.38 L 821.08,110.22 L 819.22,106.32 L 818.33,104.46 L 816.82,101.29 L 815.00,97.50 L 814.01,95.44 L 812.15,91.34 L 811.27,89.34 L 809.75,85.67 L 809.40,84.79 L 808.79,83.20 L 808.50,82.44 L 808.03,81.10 L 807.82,80.47 L 807.51,79.43 L 807.26,78.28 L 807.15,77.32 L 807.09,75.90 L 807.10,75.25 L 807.40,74.17 L 807.60,73.64 L 808.39,72.55 L 810.27,70.53 L 810.85,69.95 L 812.05,68.99 L 812.66,68.55 L 813.90,67.86 L 814.52,67.55 L 815.78,67.14 L 816.41,66.97 L 817.67,66.84 L 818.30,66.80 L 819.55,66.94 L 820.17,67.05 L 821.39,67.46 L 821.99,67.70 L 823.16,68.40 L 824.85,69.75 L 825.10,69.98 L 825.85,71.07 L 826.27,71.72 L 827.37,73.65 L 827.97,74.72 L 829.44,77.50 L 830.21,79.00 L 832.04,82.64 L 833.00,84.57 L 835.20,89.08 L 836.35,91.44 L 838.91,96.82 L 840.25,99.62 L 843.19,105.88 L 848.04,116.28 L 849.43,119.29 L 852.13,125.06 L 853.46,127.89 L 855.97,133.22 L 857.20,135.82 L 859.48,140.58 L 860.58,142.89 L 862.57,146.97 L 863.52,148.92 L 865.15,152.22 L 865.92,153.75 L 867.14,156.13 L 867.42,156.66 L 867.89,157.54 L 868.11,157.94 L 868.45,158.55 L 868.61,158.81 L 868.83,159.14 L 869.00,159.28 L 869.02,159.26 L 869.16,159.00 L 869.24,158.84 L 869.50,158.33 L 869.78,157.76 L 870.67,155.90 L 871.16,154.86 L 872.43,152.16 L 873.10,150.71 L 874.70,147.27 L 875.54,145.47 L 877.42,141.40 L 878.40,139.30 L 880.51,134.70 L 881.59,132.35 L 883.89,127.35 L 887.48,119.50 L 888.89,116.40 L 891.46,110.78 L 892.71,108.06 L 894.96,103.14 L 896.05,100.76 L 898.00,96.50 L 898.95,94.45 L 900.63,90.80 L 901.44,89.04 L 902.88,85.95 L 903.58,84.47 L 904.80,81.89 L 905.38,80.66 L 906.41,78.54 L 906.90,77.53 L 907.75,75.82 L 908.16,75.02 L 908.87,73.67 L 909.21,73.04 L 909.80,72.01 L 910.36,71.05 L 911.23,69.87 L 911.64,69.36 L 912.35,68.79 L 913.46,68.20 L 914.28,67.83 L 915.96,67.36 L 916.81,67.17 L 918.51,67.04 L 919.36,67.02 L 921.02,67.22 L 921.84,67.36 L 923.40,67.86 L 924.16,68.15 L 925.57,68.93 L 926.25,69.36 L 927.45,70.41 L 928.01,70.96 L 928.94,72.25 L 929.97,74.42 L 930.25,75.26 L 930.50,76.68 L 930.55,77.41 L 930.18,79.20 L 930.04,79.70 L 929.60,80.92 L 929.35,81.57 L 928.69,83.16 L 928.32,84.00 L 927.40,86.05 L 925.69,89.75 L 924.57,92.16 L 922.21,97.21 L 921.01,99.77 L 918.52,105.07 L 916.00,110.42 L 910.75,121.50 L 908.11,127.06 L 902.84,138.10 L 900.23,143.56 L 895.25,153.92 L 894.03,156.43 L 891.71,161.23 L 890.57,163.59 L 888.43,168.00 L 887.38,170.15 L 885.45,174.10 L 884.52,176.00 L 882.84,179.40 L 882.04,181.03 L 880.65,183.81 L 880.00,185.11 L 878.94,187.18 L 878.45,188.12 L 877.76,189.42 L 877.18,190.39 L 876.82,190.80 L 875.37,191.83 L 874.58,192.36 L 872.74,193.39 L 871.83,193.88 L 870.23,194.56 L 869.88,194.70 L 869.32,194.85 L 868.78,194.85 L 868.70,194.81 L 867.82,194.63 L 867.29,194.53 Z" fill="rgba(102,164,205,1)"/>
</g>
</svg>